<svg width="306" height="264" viewBox="0 0 306 264" fill="none" xmlns="http://www.w3.org/2000/svg">
<path d="M81.6131 108.665L148.465 41.8316L148.466 41.8312C157.578 32.7167 157.578 17.9505 148.466 8.83605C139.353 -0.278683 124.59 -0.278683 115.477 8.83604L8.83536 115.503C4.27859 120.054 2 126.023 2 131.999C2 137.966 4.25656 143.954 8.85631 148.485C8.8583 148.487 8.86028 148.489 8.86227 148.491L115.494 255.147C124.602 264.258 139.332 264.299 148.449 255.182L148.449 255.182C157.561 246.067 157.561 231.3 148.449 222.186L81.6113 155.332H281.27C294.345 155.332 304 143.496 304 131.399C304 119.153 294.206 108.665 281.27 108.665H81.6131Z" fill="black" stroke="black" stroke-width="4"/>
</svg>
