<svg width="284" height="248" viewBox="0 0 284 248" fill="none" xmlns="http://www.w3.org/2000/svg">
<path d="M248.5 35.4286H208.562L203.872 22.9677C198.689 9.13946 185.432 0 170.622 0H113.378C98.568 0 85.3664 9.13946 80.1523 22.9455L75.4375 35.4286H35.5C15.8918 35.4286 0 51.3161 0 70.8571V212.571C0 232.14 15.8918 248 35.5 248H248.5C268.108 248 284 232.14 284 212.571V70.8571C284 51.3161 268.08 35.4286 248.5 35.4286ZM257.375 212.571C257.375 217.455 253.393 221.429 248.5 221.429H35.5C30.6065 221.429 26.625 217.455 26.625 212.571V70.8571C26.625 65.9735 30.6065 62 35.5 62H93.8531L105.052 32.3064C106.334 28.8743 109.717 26.5714 113.378 26.5714H170.677C174.355 26.5714 177.694 28.8809 178.987 32.3175L190.091 62H248.5C253.393 62 257.375 65.9735 257.375 70.8571V212.571ZM192.421 86.1911L184.234 94.3673C172.619 84.0321 157.864 78.0536 142 78.0536C122.231 78.0536 103.899 86.9771 91.7231 102.532C87.1969 108.334 88.1953 116.693 94.0195 121.177C99.7883 125.716 108.164 124.664 112.712 118.907C125.193 102.97 149.971 101.049 165.452 113.106L157.348 121.199C153.038 125.439 156.034 132.691 162.024 132.857H199.388C202.017 132.802 204.125 130.643 204.125 128.041V91.0071C204.125 84.9178 196.748 81.8732 192.421 86.1911ZM171.287 164.521C158.807 180.459 134.029 182.38 118.548 170.323L126.652 162.23C130.962 157.989 127.966 150.737 121.976 150.571H84.6453C81.9828 150.627 79.875 152.287 79.875 155.387V192.405C79.875 198.505 87.269 201.561 91.59 197.243L99.7772 189.067C111.381 199.396 126.136 205.375 142 205.375C161.769 205.375 180.101 196.451 192.277 180.896C196.81 175.111 195.778 166.763 189.989 162.246C184.212 157.712 175.836 158.764 171.287 164.521Z" fill="black"/>
</svg>
