<svg width="14" height="14" viewBox="0 0 14 14" fill="none" xmlns="http://www.w3.org/2000/svg">
<path d="M14 7C14 5.96914 13.352 5.08867 12.4387 4.74688C12.8406 3.86094 12.6793 2.78086 11.9492 2.05078C11.2191 1.3207 10.1391 1.15937 9.25313 1.56133C8.91133 0.648047 8.03086 0 7 0C5.96914 0 5.08867 0.648047 4.74688 1.56133C3.86094 1.15937 2.77812 1.3207 2.05078 2.05078C1.3207 2.78086 1.15937 3.86094 1.56133 4.74688C0.648047 5.08867 0 5.96914 0 7C0 8.03086 0.648047 8.91133 1.56133 9.25313C1.15937 10.1391 1.3207 11.2219 2.05078 11.9492C2.77812 12.6766 3.8582 12.8434 4.74688 12.4387C5.08867 13.3492 5.96914 14 7 14C8.03086 14 8.91133 13.352 9.25313 12.4387C10.1445 12.8434 11.2219 12.6766 11.9492 11.9492C12.6793 11.2191 12.8406 10.1391 12.4387 9.25313C13.352 8.91133 14 8.03086 14 7Z" fill="#3C95FF"/>
<g clip-path="url(#clip0_928_1754)">
<path d="M9.87956 4.72469L10.3499 5.19505C10.4019 5.24703 10.4311 5.31753 10.4311 5.39104C10.4311 5.46455 10.4019 5.53505 10.3499 5.58703L6.58701 9.34994C6.53503 9.40192 6.46453 9.43112 6.39102 9.43112C6.31751 9.43112 6.24701 9.40192 6.19503 9.34994L4.19599 7.35089C4.14401 7.29891 4.11481 7.22842 4.11481 7.15491C4.11481 7.0814 4.14401 7.0109 4.19599 6.95892L4.66635 6.48856C4.71833 6.43658 4.78883 6.40738 4.86233 6.40738C4.93584 6.40738 5.00634 6.43658 5.05832 6.48856L6.19503 7.62527C6.24701 7.67725 6.31751 7.70645 6.39102 7.70645C6.46453 7.70645 6.53503 7.67725 6.58701 7.62527L9.48759 4.72469C9.53957 4.67271 9.61006 4.64351 9.68357 4.64351C9.75708 4.64351 9.82758 4.67271 9.87956 4.72469V4.72469Z" fill="white"/>
</g>
<defs>
<clipPath id="clip0_928_1754">
<rect width="5.8759" height="3.38141" fill="white" transform="translate(4 7.15491) rotate(-45)"/>
</clipPath>
</defs>
</svg>
