<svg width="512" height="448" viewBox="0 0 512 448" fill="none" xmlns="http://www.w3.org/2000/svg">
<path d="M464 64H376L363.62 31.12C356.6 12.38 338.8 0 318.8 0H193.3C173.3 0 155.3 12.38 148.3 31.12L136 64H48C21.5 64 0 85.5 0 112V400C0 426.5 21.5 448 48 448H464C490.5 448 512 426.5 512 400V112C512 85.5 490.5 64 464 64ZM356.9 334.8C332.4 366.1 295.7 384 256 384C224.22 384 194.63 372.06 171.42 351.39L152.14 370.68C143.2 379.6 128 373.3 128 360.7V284.3C128 278.847 132.359 274.462 137.775 274.31H214.755C227.105 274.613 233.225 289.58 224.409 298.4L205.139 317.68C219.3 329.4 237.1 336 256 336C280.8 336 303.78 324.78 319.08 305.22C327.252 294.78 342.33 292.94 352.77 301.095C363.21 309.25 365.1 324.3 356.9 334.8ZM384 227.7C384 233.153 379.641 237.538 374.225 237.69H297.245C284.895 237.387 278.775 222.42 287.591 213.6L306.861 194.32C292.7 182.6 274.9 176 256 176C231.2 176 208.22 187.22 192.92 206.78C184.8 217.2 169.7 219.1 159.2 210.9C148.8 202.8 146.9 187.7 155.1 177.2C179.6 145.9 216.3 128 256 128C287.78 128 317.37 139.94 340.58 160.61L359.86 141.32C368.8 132.4 384 138.7 384 151.3V227.7Z" fill="black"/>
</svg>
