<svg aria-hidden="true" focusable="false" data-prefix="fas" data-icon="flashlight" role="img"
  xmlns="http://www.w3.org/2000/svg" viewBox="0 0 640 512" class="svg-inline--fa fa-flashlight fa-w-20 fa-3x">
  <path fill="currentColor" d="M384 160H32a32 32 0 0 0-32 32v128a32 32 0 0 0 32 32h352l16.12 10.75c43.14 28.76 92.62 45.67 143.88 50.89V98.36c-51.26 5.22-100.74 22.13-143.88 50.89zm-96 128h-32a32 32 0 0 1 0-64h32a32 32 0 0 1 0 64zM608 96h-32v320h32a32 32 0 0 0 32-32V128a32 32 0 0 0-32-32z" class=""></path>
</svg>