<svg width="34" height="23" viewBox="0 0 34 23" fill="none"
  xmlns="http://www.w3.org/2000/svg">
  <path d="M10.2 11.4225C13.4884 11.4225 16.15 8.89215 16.15 5.76582C16.15 2.63949 13.4884 0.109131 10.2 0.109131C6.91156 0.109131 4.25 2.63949 4.25 5.76582C4.25 8.89215 6.91156 11.4225 10.2 11.4225ZM14.28 13.0387H13.8391C12.7341 13.5438 11.5069 13.8468 10.2 13.8468C8.89313 13.8468 7.67125 13.5438 6.56094 13.0387H6.12C2.74125 13.0387 0 15.6448 0 18.857V20.3116C0 21.65 1.14219 22.7359 2.55 22.7359H17.85C19.2578 22.7359 20.4 21.65 20.4 20.3116V18.857C20.4 15.6448 17.6588 13.0387 14.28 13.0387ZM25.5 11.4225C28.3156 11.4225 30.6 9.25074 30.6 6.57392C30.6 3.89709 28.3156 1.72533 25.5 1.72533C22.6844 1.72533 20.4 3.89709 20.4 6.57392C20.4 9.25074 22.6844 11.4225 25.5 11.4225ZM28.05 13.0387H27.8481C27.1097 13.2811 26.3288 13.4428 25.5 13.4428C24.6712 13.4428 23.8903 13.2811 23.1519 13.0387H22.95C21.8663 13.0387 20.8675 13.3367 19.9909 13.8165C21.2872 15.1448 22.1 16.9075 22.1 18.857V20.7965C22.1 20.9076 22.0734 21.0136 22.0681 21.1197H31.45C32.8578 21.1197 34 20.0338 34 18.6954C34 15.5691 31.3384 13.0387 28.05 13.0387Z" fill="currentColor"/>
</svg>
