<svg width="358" height="313" viewBox="0 0 358 313" fill="none" xmlns="http://www.w3.org/2000/svg">
<path d="M67.125 313H111.875C124.251 313 134.25 303.009 134.25 290.643C134.25 278.277 124.251 268.286 111.875 268.286H67.125C54.7698 268.286 44.75 258.274 44.75 245.929V67.0714C44.75 54.7261 54.7698 44.7143 67.125 44.7143H111.875C124.251 44.7143 134.25 34.7025 134.25 22.3571C134.25 10.0118 124.251 0 111.875 0H67.125C30.0524 0 0 30.0284 0 67.0714V245.929C0 282.958 30.0524 313 67.125 313ZM352.966 144.273L252.208 49.2556C247.331 44.6598 240.182 43.4043 234.029 46.0459C227.873 48.6987 223.883 54.7582 223.883 61.4514L223.819 111.755L134.319 111.754C121.949 111.754 111.93 121.766 111.93 134.111V178.826C111.93 191.171 121.956 201.183 134.319 201.183L223.819 201.184L223.883 250.858C223.883 257.55 227.873 263.609 234.029 266.264C240.184 268.905 247.335 267.65 252.208 263.054L352.966 168.036C359.678 162.369 359.678 150.631 352.966 144.273Z" fill="currentColor"/>
</svg>
